<svg id="main-logo-knockout" xmlns="http://www.w3.org/2000/svg" width="230" height="230" viewBox="0 0 230 230">
  <rect id="Rectangle_184" data-name="Rectangle 184" width="230" height="230" fill="#1a4568"/>
  <path id="icon" d="M450.116,336.333a5.909,5.909,0,0,0-4.795-1.3l-1.954.278a47.277,47.277,0,0,0-28.306-28.866l.232-1.443a5.893,5.893,0,0,0-5.819-6.889H389.409A5.893,5.893,0,0,0,383.59,305l.141.9a47.9,47.9,0,0,0-29.81,29.176l-.341-.063a5.917,5.917,0,0,0-6.889,5.819v20.1a5.912,5.912,0,0,0,5.882,5.9,7.474,7.474,0,0,0,1.01-.078l.341-.046a47.882,47.882,0,0,0,29.81,29.158l-.141.9a5.893,5.893,0,0,0,5.819,6.889h20.065a5.893,5.893,0,0,0,5.819-6.889l-.218-1.443a47.358,47.358,0,0,0,28.306-28.894l1.94.31a5.176,5.176,0,0,0,.993.092,5.912,5.912,0,0,0,5.9-5.914V340.846a5.917,5.917,0,0,0-2.095-4.516Zm-35.755-25.17a42.648,42.648,0,0,1,24.318,24.846l-13.764,2.017A29.073,29.073,0,0,0,412.344,325l2.017-13.842Zm-25.916-7.945a1.222,1.222,0,0,1,.961-.451h20.065a1.217,1.217,0,0,1,.961.451,1.245,1.245,0,0,1,.278,1.01l-.433,2.95-.141.961-2.468,16.682-.155.775-.063.25-.373,1.661H391.793l-.465-2.112a1.878,1.878,0,0,0-.063-.3l-2.608-17.893v-.014l-.5-2.964a1.263,1.263,0,0,1,.278-1.01Zm-4.034,7.357,2,13.672a29.292,29.292,0,0,0-14,13.578l-13.81-2.017a43.239,43.239,0,0,1,25.807-25.233Zm-31.626,51.582a1.236,1.236,0,0,1-1.443-1.225v-20.1a1.235,1.235,0,0,1,1.225-1.242,1.115,1.115,0,0,1,.218.014l1.925.278.93.141,17.721,2.623,2.7.591v15.285l-2.7.591-18.249,2.637Zm31.658,29.035A43.231,43.231,0,0,1,358.618,366l13.8-2.049a29.352,29.352,0,0,0,14.046,13.563l-2.017,13.672Zm25.994,7.357a1.231,1.231,0,0,1-.961.451H389.409a1.217,1.217,0,0,1-.961-.451,1.249,1.249,0,0,1-.278-1.01l.373-2.482.123-.915,2.531-17.116.063-.31.046-.218.5-2.235h15.285l.278,1.257,2.714,18.017.063.373.078.5a.149.149,0,0,0,.014.077l.482,3.056a1.263,1.263,0,0,1-.278,1.01ZM408,369.606H390.884a3.487,3.487,0,0,0-3.429,2.763l-.092.419a24.851,24.851,0,0,1-10.18-9.744l.775-.172a3.534,3.534,0,0,0,2.763-3.429V342.327a3.534,3.534,0,0,0-2.763-3.429l-.76-.172a24.614,24.614,0,0,1,10.163-9.744l.092.419a3.489,3.489,0,0,0,3.429,2.763H408a3.443,3.443,0,0,0,3.305-2.373,24.3,24.3,0,0,1,8.955,9.325,3.479,3.479,0,0,0-2.095,3.214v17.116a3.541,3.541,0,0,0,2.08,3.214,24.228,24.228,0,0,1-8.938,9.325A3.44,3.44,0,0,0,408,369.611Zm6.379,20.981-2.031-13.859a29.048,29.048,0,0,0,12.585-13l13.764,2A42.664,42.664,0,0,1,414.378,390.586Zm33.178-29.672a1.217,1.217,0,0,1-.451.961,1.245,1.245,0,0,1-1.01.278l-3.57-.528-.806-.123-16.218-2.39-1.489-.327-1.194-.264V343.236l1.194-.264.218-.046,1.288-.278,16.591-2.4,3.988-.637a1.263,1.263,0,0,1,1.01.278,1.231,1.231,0,0,1,.451.961v20.065Z" transform="translate(-284.69 -253.033)" fill="#fff"/>
  <path id="Path_2" data-name="Path 2" d="M381.32,736.689V715.935a2.076,2.076,0,0,1,2.075-2.075h7.9v4.812H387.11a.718.718,0,0,0-.717.717v4.123h4.7v4.7h-4.7v5a.717.717,0,0,0,.717.717h4.5v4.841h-8.218A2.076,2.076,0,0,1,381.32,736.689Z" transform="translate(-310.982 -549.49)" fill="#fff"/>
  <path id="Path_3" data-name="Path 3" d="M506.86,736.689V715.935a2.076,2.076,0,0,1,2.075-2.075h7.9v4.812H512.65a.718.718,0,0,0-.717.717v4.123h4.7v4.7h-4.7v5a.718.718,0,0,0,.717.717h4.5v4.841h-8.218A2.076,2.076,0,0,1,506.86,736.689Z" transform="translate(-400.5 -549.49)" fill="#fff"/>
  <path id="Path_4" data-name="Path 4" d="M658.81,735.749V714.995a2.076,2.076,0,0,1,2.075-2.074h7.9v4.812H664.6a.718.718,0,0,0-.717.717v4.123h4.7v4.7h-4.7v5a.718.718,0,0,0,.717.717h4.5v4.841h-8.218A2.076,2.076,0,0,1,658.81,735.749Z" transform="translate(-508.85 -548.82)" fill="#fff"/>
  <path id="Path_5" data-name="Path 5" d="M428.17,738.763V716.012a2.153,2.153,0,0,1,2.152-2.152h3.567a2.152,2.152,0,0,1,2.132,1.859l1.831,13.334,1.834-13.334a2.152,2.152,0,0,1,2.132-1.859h3.624a2.153,2.153,0,0,1,2.152,2.152v22.751h-4.551V720.818l-2.58,16.134a2.152,2.152,0,0,1-2.126,1.813h-.812a2.15,2.15,0,0,1-2.12-1.793l-2.74-16.154v17.945Z" transform="translate(-344.389 -549.49)" fill="#fff"/>
  <path id="Path_6" data-name="Path 6" d="M553.93,713.86h7.653a4.322,4.322,0,0,1,2.826.826A4.123,4.123,0,0,1,565.757,717a17.231,17.231,0,0,1,.347,3.813,8.032,8.032,0,0,1-.551,3.305,3.1,3.1,0,0,1-1.914,1.653,2.3,2.3,0,0,1,1.638,1.13,4.963,4.963,0,0,1,.508,2.436l-.057,9.423h-4.869v-9.741q0-1.042-.4-1.334a2.7,2.7,0,0,0-1.478-.29v11.366h-5.044v-24.9Zm6.261,9.219q1.046,0,1.044-2.261a9.3,9.3,0,0,0-.086-1.478,1.1,1.1,0,0,0-.318-.683,1.028,1.028,0,0,0-.666-.189h-1.159v4.611h1.188Z" transform="translate(-434.064 -549.49)" fill="#fff"/>
  <path id="Path_7" data-name="Path 7" d="M606.29,735.7a10.139,10.139,0,0,1-1.32-5.756V719.217A7.743,7.743,0,0,1,606.508,714a5.738,5.738,0,0,1,4.58-1.768,6.449,6.449,0,0,1,3.828.987,5.058,5.058,0,0,1,1.885,2.869,18.613,18.613,0,0,1,.522,4.841h-4.869v-2.232a3.188,3.188,0,0,0-.247-1.392.9.9,0,0,0-.884-.493q-1.42,0-1.42,1.856v12.06a3.957,3.957,0,0,0,.29,1.71,1.18,1.18,0,0,0,2.031,0,3.964,3.964,0,0,0,.29-1.71v-3.567h-1.334v-4.29h6.089v14.5h-2l-.841-2.089a4.426,4.426,0,0,1-4.117,2.318,4.489,4.489,0,0,1-4.014-1.9Z" transform="translate(-470.458 -548.328)" fill="#fff"/>
</svg>
