<svg id="main-logo-vertical-right" xmlns="http://www.w3.org/2000/svg" viewBox="0 0 730.38 298.47"><defs><style>.cls-1{fill:#fff;}</style></defs><path id="icon" class="cls-1" d="M292.52,108.09A16.72,16.72,0,0,0,279,104.4l-5.53.79a133.67,133.67,0,0,0-80.05-81.63l.66-4.08A16.67,16.67,0,0,0,177.58,0H120.83a16.67,16.67,0,0,0-16.46,19.48l.39,2.55a135.48,135.48,0,0,0-84.31,82.51l-1-.18A16.72,16.72,0,0,0,0,120.82v56.83a16.71,16.71,0,0,0,16.63,16.68,20.91,20.91,0,0,0,2.85-.22l1-.13a135.4,135.4,0,0,0,84.31,82.46l-.39,2.55a16.67,16.67,0,0,0,16.46,19.48h56.75A16.67,16.67,0,0,0,194,279l-.61-4.08a133.94,133.94,0,0,0,80.05-81.72l5.49.88a14.47,14.47,0,0,0,2.81.26,16.71,16.71,0,0,0,16.67-16.72V120.86a16.72,16.72,0,0,0-5.92-12.77ZM191.4,36.91a120.61,120.61,0,0,1,68.77,70.26l-38.93,5.71a82.22,82.22,0,0,0-35.55-36.82ZM118.11,14.44a3.46,3.46,0,0,1,2.72-1.27h56.75a3.46,3.46,0,0,1,2.72,1.27,3.51,3.51,0,0,1,.79,2.85l-1.23,8.34-.4,2.72-7,47.18L172,77.72l-.18.7-1.05,4.7H127.58l-1.32-6a4.93,4.93,0,0,0-.18-.83l-7.37-50.6v0l-1.4-8.38a3.51,3.51,0,0,1,.79-2.85ZM106.7,35.24l5.66,38.66a82.86,82.86,0,0,0-39.59,38.4l-39.06-5.71a122.28,122.28,0,0,1,73-71.36ZM17.26,181.12a3.5,3.5,0,0,1-4.08-3.47V120.82a3.46,3.46,0,0,1,1.23-2.68,3.42,3.42,0,0,1,2.24-.83,3.13,3.13,0,0,1,.61,0l5.44.79,2.63.4L75.45,126l7.64,1.67v43.23l-7.64,1.67L23.84,180l-6.58,1.14Zm89.53,82.11a122.26,122.26,0,0,1-73-71.23l39-5.79a83,83,0,0,0,39.72,38.36ZM180.3,284a3.47,3.47,0,0,1-2.72,1.27H120.83a3.46,3.46,0,0,1-2.72-1.27,3.51,3.51,0,0,1-.79-2.85l1.05-7,.35-2.59,7.15-48.41.18-.88.13-.61,1.4-6.32h43.23l.79,3.55,7.68,51,.18,1,.22,1.4a.43.43,0,0,0,0,.22l1.36,8.65a3.51,3.51,0,0,1-.79,2.85Zm-6.89-81.85H125a9.86,9.86,0,0,0-9.7,7.81l-.26,1.18a70.25,70.25,0,0,1-28.79-27.56l2.19-.48a10,10,0,0,0,7.81-9.7V125a10,10,0,0,0-7.81-9.7l-2.15-.48A69.53,69.53,0,0,1,115,87.28l.26,1.19a9.86,9.86,0,0,0,9.7,7.81h48.41a9.75,9.75,0,0,0,9.35-6.71A68.66,68.66,0,0,1,208.08,116a9.85,9.85,0,0,0-5.92,9.08v48.41a10,10,0,0,0,5.88,9.08,68.53,68.53,0,0,1-25.28,26.38,9.74,9.74,0,0,0-9.35-6.71Zm18,59.34-5.75-39.19a82.16,82.16,0,0,0,35.59-36.78l38.93,5.66A120.67,120.67,0,0,1,191.45,261.52Zm93.83-83.91a3.46,3.46,0,0,1-1.27,2.72,3.55,3.55,0,0,1-2.85.79l-10.09-1.49-2.28-.35-45.86-6.76-4.21-.92-3.38-.75V127.62l3.38-.75.61-.13L223,126l46.92-6.8,11.28-1.8a3.55,3.55,0,0,1,2.85.79,3.47,3.47,0,0,1,1.27,2.72v56.75Z"/><path class="cls-1" d="M335.32,195.84V104.65a9.12,9.12,0,0,1,9.12-9.12h34.7v21.15H360.76a3.15,3.15,0,0,0-3.15,3.15V138h20.64v20.64H357.61v21.94a3.15,3.15,0,0,0,3.15,3.15h19.78V205h-36.1a9.12,9.12,0,0,1-9.12-9.12Z"/><path class="cls-1" d="M493.59,195.84V104.65a9.12,9.12,0,0,1,9.12-9.12h34.7v21.15H519a3.15,3.15,0,0,0-3.15,3.15V138h20.64v20.64H515.88v21.94a3.15,3.15,0,0,0,3.15,3.15h19.78V205h-36.1a9.12,9.12,0,0,1-9.12-9.12Z"/><path class="cls-1" d="M685.16,194.66V103.47a9.12,9.12,0,0,1,9.12-9.12H729V115.5H710.6a3.15,3.15,0,0,0-3.15,3.15v18.12h20.64v20.64H707.45v21.94a3.15,3.15,0,0,0,3.15,3.15h19.78v21.27h-36.1a9.12,9.12,0,0,1-9.12-9.12Z"/><path class="cls-1" d="M394.39,205V105a9.46,9.46,0,0,1,9.46-9.46h15.67a9.47,9.47,0,0,1,9.37,8.17l8.05,58.58L445,103.7a9.45,9.45,0,0,1,9.37-8.17h15.93a9.46,9.46,0,0,1,9.46,9.46V205h-20V126.11L448.41,197a9.45,9.45,0,0,1-9.34,8H435.5a9.46,9.46,0,0,1-9.32-7.87l-12-71V205H394.39Z"/><path class="cls-1" d="M552.93,95.54h33.63q8,0,12.42,3.63a18.05,18.05,0,0,1,5.92,10.19,75.72,75.72,0,0,1,1.53,16.75q0,9.3-2.42,14.52a13.63,13.63,0,0,1-8.41,7.26,10.15,10.15,0,0,1,7.2,5q2.22,3.94,2.23,10.7l-.25,41.4h-21.4v-42.8q0-4.59-1.78-5.86T575.1,155V205H552.94V95.54Zm27.51,40.51q4.59,0,4.59-9.94a41.29,41.29,0,0,0-.38-6.5,4.79,4.79,0,0,0-1.4-3,4.56,4.56,0,0,0-2.93-.83h-5.1V136h5.22Z"/><path class="cls-1" d="M623.08,196.62q-5.79-8.34-5.8-25.29V124.2q0-15.15,6.75-22.93t20.13-7.77Q655,93.5,661,97.83t8.28,12.61q2.29,8.28,2.29,21.27h-21.4V121.9a14,14,0,0,0-1.08-6.11,4,4,0,0,0-3.88-2.17q-6.24,0-6.24,8.15v53a17.39,17.39,0,0,0,1.27,7.52,5.18,5.18,0,0,0,8.92,0,17.36,17.36,0,0,0,1.27-7.52V159.09h-5.86V140.24h26.75v63.69H662.5l-3.69-9.17Q652.94,205,640.72,205c-8.15,0-13.78-2.78-17.64-8.34Z"/></svg>